<svg id="visual" viewBox="0 0 900 600" width="900" height="600" xmlns="http://www.w3.org/2000/svg" xmlns:xlink="http://www.w3.org/1999/xlink" version="1.1"><g transform="translate(331.94512561701924 281.0073317329836)"><path d="M154.6 -158.4C227.8 -122.8 333.5 -100.1 378.1 -38.4C422.7 23.4 406.2 124.2 347.7 177.5C289.2 230.8 188.7 236.6 103.3 255.4C17.9 274.1 -52.4 305.7 -91.5 279.4C-130.6 253 -138.4 168.7 -146.8 107.4C-155.2 46.1 -164.3 7.8 -166.8 -38.4C-169.3 -84.5 -165.3 -138.4 -136.4 -181.8C-107.6 -225.2 -53.8 -258.1 -6.5 -250.3C40.7 -242.5 81.4 -194 154.6 -158.4" fill="#736ca3"></path></g></svg>